<svg xmlns="http://www.w3.org/2000/svg" viewBox="0 0 483.79 426.25"><defs><style>.cls-1{fill:#ff725e;}.cls-2{fill:#2d8e31;}.cls-3{fill:#ebebeb;}.cls-4{fill:#263238;}.cls-5{fill:#ffbf9d;}.cls-6{fill:#ff9a6c;}.cls-7{fill:#455a64;}.cls-8{opacity:0.3;}</style></defs><g id="Layer_2" data-name="Layer 2"><g id="Background_Complete" data-name="Background Complete"><path class="cls-1" d="M243,2.62A29.07,29.07,0,0,0,227.17.26a29.6,29.6,0,0,0-13.66,5.55A19.92,19.92,0,0,0,207.27,14a26.38,26.38,0,0,0-1.41,13.35,2.81,2.81,0,0,0,3.21,2.43l9.78-1.48a2.84,2.84,0,0,0,2.39-2.82c0-3.13,1-8.56,8.29-9.8A9,9,0,0,1,239,20a10.11,10.11,0,0,1,.56,9.09c-1.95,4.69-6.64,6.07-9.25,6.48a5.54,5.54,0,0,0-4.64,6.28l1.6,10.52a2.82,2.82,0,0,0,3.21,2.36L240,53.31a2.82,2.82,0,0,0,2.36-3.21L242,47.89a.12.12,0,0,1,.06-.13,27.87,27.87,0,0,0,9.14-7.86c4.08-5.51,5.58-12,4.46-19.44C254.08,9.89,247.92,4.92,243,2.62Z"/><path class="cls-1" d="M236.12,56.61l-.84.13a7.3,7.3,0,0,0,2.2,14.44l.83-.13a7.3,7.3,0,1,0-2.19-14.44Z"/><path class="cls-1" d="M46.92,172.36a21,21,0,0,0-9.62-6.61A21.53,21.53,0,0,0,26.61,165a14.44,14.44,0,0,0-6.69,3.35,19.24,19.24,0,0,0-5.2,8.27,2.06,2.06,0,0,0,1.33,2.62l6.86,2.15a2.06,2.06,0,0,0,2.46-1.07c1-2.06,3.39-5.28,8.56-3.76a6.53,6.53,0,0,1,4.78,5.88,7.35,7.35,0,0,1-2.54,6.13c-2.77,2.43-6.28,1.84-8.12,1.27a4,4,0,0,0-5,2.62l-2.32,7.38A2,2,0,0,0,22,202.41l6.68,2.1a2,2,0,0,0,2.57-1.34l.49-1.55a.08.08,0,0,1,.08-.06,20.35,20.35,0,0,0,8.49-2.22,18.31,18.31,0,0,0,9.13-11.28C51.81,180.64,49.37,175.43,46.92,172.36Z"/><path class="cls-1" d="M25.13,205.43l-.58-.19a5.31,5.31,0,0,0-3.19,10.14l.59.18a5.31,5.31,0,1,0,3.18-10.13Z"/><path class="cls-2" d="M356.11,399.41c24.34-1.06,55.21-8.83,74.1-24.71a136.48,136.48,0,0,0-74.1,24.71"/><path class="cls-2" d="M373,370.62c24.34-1.05,55.22-8.82,74.1-24.71A136.67,136.67,0,0,0,373,370.62"/><path class="cls-2" d="M391.25,343.21c24.33-1.06,55.21-8.83,74.09-24.71a136.45,136.45,0,0,0-74.09,24.71"/><path class="cls-2" d="M411.56,314.93c24.21-4,54.05-15.48,70.8-33.41a137.38,137.38,0,0,0-70.8,33.41"/><path class="cls-2" d="M429.41,294.06c21.5-12.31,45.46-33.3,54.38-55.45a134.25,134.25,0,0,0-54.38,55.45"/><path class="cls-2" d="M420.76,303.92c6.62-24.14,8.67-56.6-1-79.62a137.14,137.14,0,0,0,1,79.62"/><path class="cls-2" d="M403.53,327c4.7-25.61,3.86-59.5-8.39-82.67A142.79,142.79,0,0,0,403.53,327"/><path class="cls-2" d="M383,355.29c4.69-25.61,3.86-59.51-8.4-82.67a142.72,142.72,0,0,0,8.4,82.67"/><path class="cls-2" d="M361.13,391.14c4.69-25.61,3.86-59.51-8.4-82.67a142.8,142.8,0,0,0,8.4,82.67"/><path class="cls-2" d="M352.79,404.38c-3.52,6.51-6.28,11.82-8.11,15.54q-1.33,2.7-2.1,4.28c-.21.45-.38.82-.53,1.12a1.7,1.7,0,0,0-.15.4,1.49,1.49,0,0,0,.24-.36l.6-1.08q.84-1.54,2.26-4.2c1.92-3.66,4.77-8.92,8.37-15.39s8-14.09,13-22.48,10.8-17.46,17-26.86c12.51-18.78,24.76-35.16,33.9-46.78,4.57-5.82,8.31-10.49,10.94-13.68l3-3.71.77-1a1.88,1.88,0,0,0,.23-.36s-.12.09-.31.3l-.83.92-3.13,3.6c-2.71,3.12-6.54,7.73-11.17,13.5-9.28,11.54-21.63,27.87-34.16,46.68"/><path class="cls-2" d="M298,248.57c8.89-21.93,14.48-52.35,8.06-75.44A132.67,132.67,0,0,0,298,248.57"/><path class="cls-2" d="M279.37,222c8.89-21.93,14.47-52.34,8.06-75.43A132.64,132.64,0,0,0,279.37,222"/><path class="cls-2" d="M262.49,194.85c8.88-21.93,14.47-52.34,8.06-75.43a132.56,132.56,0,0,0-8.06,75.43"/><path class="cls-2" d="M245.7,165.5c6.2-23,8.13-54-1-76a133.51,133.51,0,0,0,1,76"/><path class="cls-2" d="M234.46,141.31c-2.2-24-11.08-53.59-27.06-70.41a130.48,130.48,0,0,0,27.06,70.41"/><path class="cls-2" d="M239.69,152.93c-18.67-15.59-46.52-30.5-70.77-31.2a133.11,133.11,0,0,0,70.77,31.2"/><path class="cls-2" d="M253.12,177.46c-20.73-14.48-51-27.42-76.43-25.93a138.63,138.63,0,0,0,76.43,25.93"/><path class="cls-2" d="M269.84,207c-20.73-14.47-51-27.41-76.43-25.92A138.72,138.72,0,0,0,269.84,207"/><path class="cls-2" d="M292.69,240.79c-20.73-14.47-51-27.41-76.43-25.92a138.65,138.65,0,0,0,76.43,25.92"/><path class="cls-2" d="M301,253.5c4.33,5.74,7.91,10.33,10.45,13.44l2.94,3.58.78.92c.18.2.27.3.29.29a1.86,1.86,0,0,0-.22-.35l-.71-1-2.8-3.69c-2.46-3.17-6-7.81-10.23-13.6s-9.22-12.75-14.6-20.57-11.07-16.59-16.86-25.9C258.52,188,249,170.6,242.4,157.84c-3.29-6.39-5.9-11.58-7.67-15.19q-1.3-2.62-2.07-4.14c-.22-.43-.4-.78-.56-1.07a1.61,1.61,0,0,0-.21-.35s0,.14.13.39.29.66.48,1.11l1.92,4.21c1.66,3.66,4.19,8.9,7.42,15.32,6.45,12.86,15.9,30.35,27.47,49"/><path class="cls-1" d="M467.4,162.71a29.67,29.67,0,0,0-13.73-9,30.3,30.3,0,0,0-15.06-.67,20.38,20.38,0,0,0-9.28,4.93,27,27,0,0,0-7,11.8,2.86,2.86,0,0,0,1.95,3.63l9.71,2.79a2.89,2.89,0,0,0,3.42-1.6c1.31-2.92,4.59-7.53,11.89-5.57a9.19,9.19,0,0,1,6.93,8.09,10.3,10.3,0,0,1-3.36,8.69c-3.81,3.52-8.75,2.81-11.35,2.08a5.67,5.67,0,0,0-7,3.86l-3,10.45a2.89,2.89,0,0,0,2,3.56l9.46,2.71a2.88,2.88,0,0,0,3.56-2l.63-2.2a.13.13,0,0,1,.12-.09,28.53,28.53,0,0,0,11.84-3.41c6.14-3.38,10.32-8.82,12.43-16.16C474.56,174.18,471,166.94,467.4,162.71Z"/><path class="cls-1" d="M438,209.92l-.83-.24A7.47,7.47,0,1,0,433,224l.83.24A7.47,7.47,0,0,0,438,209.92Z"/><path class="cls-3" d="M146.93,248.22A27.46,27.46,0,0,0,132.66,243,28,28,0,0,0,119,245.6a18.72,18.72,0,0,0-7.33,6.4,25,25,0,0,0-3.84,12.11,2.59,2.59,0,0,0,.65,1.95,2.66,2.66,0,0,0,1.87.91l9.34.47a2.69,2.69,0,0,0,2.76-2.16c.56-2.91,2.54-7.75,9.54-7.52a8.51,8.51,0,0,1,7.95,5.84,9.53,9.53,0,0,1-1.2,8.54c-2.7,4-7.3,4.37-9.81,4.26a5.23,5.23,0,0,0-5.48,4.94l-.51,10.06a2.67,2.67,0,0,0,2.53,2.79l9.1.46a2.67,2.67,0,0,0,2.8-2.53l.11-2.11a.12.12,0,0,1,.08-.11,26.36,26.36,0,0,0,10-5.56c4.83-4.34,7.46-10.12,7.81-17.18C155.79,257.06,151,251.28,146.93,248.22Z"/><path class="cls-3" d="M130.3,297l-.8,0a6.91,6.91,0,1,0-.69,13.81l.79,0a6.91,6.91,0,0,0,.7-13.81Z"/><path class="cls-2" d="M98.36,426.25H107c5.08-18.12,7.53-38.28,4.2-55.14A144.5,144.5,0,0,0,98.36,426.25Z"/><path class="cls-2" d="M96.72,342.17a146.24,146.24,0,0,0-12.1,76c.09.2.19.41.29.61C94.51,396.8,101.46,366.14,96.72,342.17Z"/><path class="cls-2" d="M73.92,309.78a148.3,148.3,0,0,0-4.15,75c.31.75.63,1.51,1,2.29C77.76,363.87,81.19,332.68,73.92,309.78Z"/><path class="cls-2" d="M59.07,358.33a1.69,1.69,0,0,1-.11-.41s.08.12.19.37.28.68.47,1.13l.52,1.33c.34.55.67,1.11,1,1.66-.7-24.76-7.44-55.77-21.65-74,.33,25.48,7.46,50.76,20.07,71.47l-.12-.35C59.3,359,59.17,358.64,59.07,358.33Z"/><path class="cls-2" d="M65,374.59c-.07-.19-.15-.37-.22-.56C48,357.07,22.72,340.41,0,338.21,17.62,356.84,40.74,369.76,65,374.59Z"/><path class="cls-2" d="M76.82,400.72l-.29-.24c0,.08.07.15.1.22Z"/><path class="cls-2" d="M5.67,369.32a126.92,126.92,0,0,0,70.06,31.27c-.19-.41-.36-.82-.54-1.24C56.36,383.71,29.22,369.37,5.67,369.32Z"/><path class="cls-2" d="M19.86,400.72a128,128,0,0,0,44.05,25.53H83.67C65.31,412.47,41.13,400.78,19.86,400.72Z"/><path class="cls-2" d="M67.21,380.15c2.23,5.64,4.91,12.13,8,19.2.18.42.35.83.54,1.24,3.47,8,7.44,16.63,11.82,25.66h1q-1.85-3.79-3.6-7.5c-.1-.2-.2-.41-.29-.61-2.88-6.08-5.55-11.93-8-17.44,0-.07-.07-.14-.1-.22-2.11-4.76-4-9.26-5.8-13.43-.33-.78-.65-1.54-1-2.29-.7-1.68-1.37-3.31-2-4.87-2.76-6.76-5-12.26-6.42-16.08-.46-1.19-.86-2.2-1.2-3.06l-.52-1.33c-.19-.45-.35-.82-.47-1.13s-.17-.38-.19-.37a1.69,1.69,0,0,0,.11.41c.1.31.23.69.39,1.16l.12.35,1.46,4.1C62,366.57,63.25,370,64.81,374c.07.19.15.37.22.56C65.71,376.34,66.43,378.19,67.21,380.15Z"/></g><g id="Character_1" data-name="Character 1"><path class="cls-4" d="M191.57,333.44c-10.8-27-18.9-45.82-18.9-45.82L74,302.62s-17.74,45.48-16.2,66.11,8.75,57,8.75,57H186S202.36,360.48,191.57,333.44Z"/><path class="cls-4" d="M156,107.92c.77-7.8,1.94-15.64,4.79-22.94s7.54-14.09,14.14-18.31l1.7,1.58a9.84,9.84,0,0,1,17.18-2.63,9.72,9.72,0,0,1,10.62,14.76,8.91,8.91,0,0,1,4,16.15,13,13,0,0,1-8,22.76,10.24,10.24,0,0,1-17.89,9c.36,4.67-3.38,9.09-7.93,10.21s-9.5-.73-12.82-4a22.32,22.32,0,0,1-5.85-12.52A56.15,56.15,0,0,1,156,107.92Z"/><path class="cls-1" d="M177,73.36c4.54,1.47,5.47,5.14,6.41,8.21,2,6.59-.25,16.35-3.94,22.18s-7.74,8.79-14.57,9.77l-.66-31.4Z"/><path class="cls-4" d="M179.51,91.38a10.87,10.87,0,0,0-1-13.9c2-2.5,1.27-6.35-.75-8.82s-5-3.89-7.92-5.23c-1.59-7.3-9.79-12.44-17-10.69C149,47.18,141,46.3,134.51,48.19a17.42,17.42,0,0,1-4.8,1.05,29.35,29.35,0,0,1-3.58-.5c-6.57-.88-13.1,3.74-15.66,9.86a12.18,12.18,0,0,1-1.4,2.85A16,16,0,0,1,105.83,64a10.51,10.51,0,0,0-4,7.77c-.1,2.55.71,5.26-.37,7.58-.53,1.16-1.51,2.1-1.93,3.31-1.21,3.51,2.67,7.09,2,10.73-.14.75-.48,1.44-.68,2.17a6.45,6.45,0,0,0,.39,4.53c.52,1.07,1.36,2.06,1.43,3.25a10.73,10.73,0,0,1-.53,2.66c-.45,2.17,4.24,10.56,6.12,11.74l56.13.5a10.5,10.5,0,0,0,8.12-9,3.91,3.91,0,0,1,.52-2.07,4.48,4.48,0,0,1,1.54-1c3.61-1.94,4-6.9,3.67-11a4.68,4.68,0,0,1,0-1.71A6.34,6.34,0,0,1,179.51,91.38Z"/><path class="cls-5" d="M163.43,91.46c.17-9.93-6.06-21.35-15.93-26.2-6.22-3.07-11.08-3.09-14.35-3.47a22.78,22.78,0,0,0-13.24,2.78c-3.09.73-14.43,11.11-15,22.37-.65,12.52-1,27.82.63,37.14,3.18,18.73,17.58,21,17.58,21s-1.34,31.13-1.34,31.13l27.69,22.7,8.46-37.26Z"/><path class="cls-6" d="M123.1,145.05a48,48,0,0,0,25.15-7s-6.55,13.29-25.35,11.74Z"/><path class="cls-5" d="M160.6,109.28c0-1.4,1.57-4.71,2.94-4.94,3.68-.61,10.33-.39,10.49,9,.22,12.79-12.34,9.94-12.7,10C159.29,123.74,160.64,114.1,160.6,109.28Z"/><path class="cls-6" d="M164.78,118.58c.06,0,.23.16.61.32a2.22,2.22,0,0,0,1.66,0c1.35-.52,2.45-2.69,2.47-5a7.35,7.35,0,0,0-.68-3.18,2.55,2.55,0,0,0-1.71-1.68,1.13,1.13,0,0,0-1.3.63c-.17.36-.08.61-.15.64s-.27-.21-.18-.74a1.39,1.39,0,0,1,.49-.81,1.67,1.67,0,0,1,1.23-.35,3.13,3.13,0,0,1,2.36,1.94,7.6,7.6,0,0,1,.83,3.56c0,2.57-1.31,5-3.15,5.58a2.39,2.39,0,0,1-2-.31C164.81,118.89,164.74,118.61,164.78,118.58Z"/><path class="cls-4" d="M102.15,85.05c.4-4.65,2.26-9.06,4.5-13.15a27.22,27.22,0,0,1,5.78-7.7A29.92,29.92,0,0,1,119.34,60c6.41-3,13.55-5.62,20.47-4.06,3.72.84,7.06,2.81,10.32,4.79a38.88,38.88,0,0,1,7.08,5.11A28.74,28.74,0,0,1,161.82,72a39.66,39.66,0,0,1,5.7,17.23c.42,6.09,5,11.47,1.46,16.42-.28.39-6.64,1.7-7.08,1.88-1,.41-2.17-.71-2.16-1.83a4.06,4.06,0,0,1,1.6-2.81c-1.58-.06-2.67-1.82-2.57-3.4a8.42,8.42,0,0,1,2-4.25,1.19,1.19,0,0,0,.27-.55c.07-.54-.54-.87-1-1.15a4.31,4.31,0,0,1-.46-6.74,5.77,5.77,0,0,1-3.94-7.31c.17-.47.41-1,.18-1.43s-.74-.56-1.19-.69a7.35,7.35,0,0,1-4.92-8.27,18.16,18.16,0,0,1-5.31-.23,6.24,6.24,0,0,1-4.19-3,6.93,6.93,0,0,1-11.72.62,18,18,0,0,1-8.78-1.36,8.56,8.56,0,0,1-5.58,6c-.53.17-1.14.33-1.39.83a2,2,0,0,0-.12,1c.09,1.78-1.12,2.54-2.11,4s-2.7,3.71-4.42,3.22c.19,3-1.44,5.26-4,6.9Z"/><path class="cls-7" d="M99.5,82.7a4.76,4.76,0,0,1,.68-1.38c.27-.43.64-.93,1-1.56a6.06,6.06,0,0,0,.7-2.4,19.25,19.25,0,0,0-.09-3.17,14,14,0,0,1,.07-3.8,10.49,10.49,0,0,1,1.65-4,10.6,10.6,0,0,1,1.55-1.83,17.08,17.08,0,0,1,2-1.52A7.77,7.77,0,0,0,109,61.31a10.29,10.29,0,0,0,1.19-2.42,16.67,16.67,0,0,1,3.07-5,16.38,16.38,0,0,1,4.92-3.86,15.76,15.76,0,0,1,3.07-1.19,13.92,13.92,0,0,1,3.36-.4,14.2,14.2,0,0,1,1.72.12c.58.08,1.14.2,1.71.29a8.21,8.21,0,0,0,3.42,0c1.14-.24,2.26-.66,3.44-1a22.88,22.88,0,0,1,3.62-.67,22.31,22.31,0,0,1,3.75-.07,20.3,20.3,0,0,1,3.76.66,12.67,12.67,0,0,1,6.48,4.2l.48.62-.21-.07a14.83,14.83,0,0,1,17.28,10.83l-.1-.13a42.6,42.6,0,0,1,4.51,2.33,13.53,13.53,0,0,1,3.68,3.25,8.72,8.72,0,0,1,1.71,4.4,6.1,6.1,0,0,1-1.19,4.34v-.22a10.63,10.63,0,0,1,3,6.55,10.8,10.8,0,0,1-1.28,6.36,9.42,9.42,0,0,1-.84,1.28,12.87,12.87,0,0,0-.87,1.15,2.65,2.65,0,0,0-.44,1.26,8.32,8.32,0,0,0,0,1.32,21,21,0,0,1-.09,4.86,10.07,10.07,0,0,1-1.23,3.71,6.35,6.35,0,0,1-2,2.09c-.66.44-1.24.61-1.56.85a2.8,2.8,0,0,0-.47.39,1.64,1.64,0,0,1,.44-.43c.32-.25.9-.45,1.53-.89a6.24,6.24,0,0,0,1.91-2.09,10.11,10.11,0,0,0,1.17-3.66,21.26,21.26,0,0,0,.05-4.81,8.63,8.63,0,0,1-.06-1.36,3,3,0,0,1,.48-1.37,11,11,0,0,1,.88-1.18,10.44,10.44,0,0,0,2-7.46,10.29,10.29,0,0,0-2.94-6.34l-.1-.1.09-.11a5.7,5.7,0,0,0,1.1-4.11,8.36,8.36,0,0,0-1.64-4.22,13,13,0,0,0-3.6-3.15,40,40,0,0,0-4.47-2.3l-.09,0,0-.09a14.48,14.48,0,0,0-16.83-10.54l-.12,0-.08-.11-.47-.6a12.2,12.2,0,0,0-6.28-4.07,20.13,20.13,0,0,0-3.68-.65,21.51,21.51,0,0,0-3.68.07,22.12,22.12,0,0,0-3.56.65c-1.16.3-2.29.73-3.47,1a9,9,0,0,1-1.79.2,10.19,10.19,0,0,1-1.76-.18c-.58-.1-1.14-.22-1.7-.3a15.81,15.81,0,0,0-1.67-.12,13.62,13.62,0,0,0-3.27.39,14.74,14.74,0,0,0-3,1.15A16.85,16.85,0,0,0,110.47,59a10.66,10.66,0,0,1-1.24,2.48,8.09,8.09,0,0,1-2,1.75,17,17,0,0,0-2,1.48,10.62,10.62,0,0,0-1.53,1.78,10.46,10.46,0,0,0-1.64,3.94,13.61,13.61,0,0,0-.09,3.75,19.18,19.18,0,0,1,0,3.19,6,6,0,0,1-.75,2.44c-.37.64-.76,1.13-1,1.55a7.39,7.39,0,0,0-.57,1C99.55,82.58,99.51,82.7,99.5,82.7Z"/><path class="cls-7" d="M146.8,50s-.34-.19-1-.49A8.47,8.47,0,0,0,143,48.7a8.11,8.11,0,0,0-4.2.64,8.39,8.39,0,0,0-3.8,3.5,7.32,7.32,0,0,0-.63,1.45,1.6,1.6,0,0,0,.11,1.35l.31.43-.51-.14a5.31,5.31,0,0,0-4,.5,5.16,5.16,0,0,0-2.15,2.39,5.6,5.6,0,0,0-.48,2.11c0,.51,0,.79,0,.8a.63.63,0,0,1-.06-.2,3.53,3.53,0,0,1-.07-.6,5.39,5.39,0,0,1,.39-2.21,5.31,5.31,0,0,1,2.21-2.57,5.57,5.57,0,0,1,4.22-.58l-.21.29a2,2,0,0,1-.17-1.67,8,8,0,0,1,.66-1.54,8.52,8.52,0,0,1,4-3.63,8.14,8.14,0,0,1,4.38-.59,7.83,7.83,0,0,1,2.83.93,5.24,5.24,0,0,1,.68.43C146.73,49.91,146.81,50,146.8,50Z"/><path class="cls-7" d="M167.67,64.5s-.13.19-.44.46a7.91,7.91,0,0,1-1.44,1,6.18,6.18,0,0,1-2.55.79,4.58,4.58,0,0,1-3.18-.94l.28,0c-.12.17-.24.35-.37.52s-.29.34-.43.51a7.8,7.8,0,0,1-3.18,2,8,8,0,0,1-3.05.4,7.13,7.13,0,0,1-2-.44,2.73,2.73,0,0,1-.67-.35,11.26,11.26,0,0,0,2.7.52,8.06,8.06,0,0,0,2.92-.47,7.61,7.61,0,0,0,3-1.94l.41-.48c.12-.17.23-.34.35-.5l.12-.17.16.13a4.33,4.33,0,0,0,2.92.89,6.1,6.1,0,0,0,2.45-.67A23.53,23.53,0,0,0,167.67,64.5Z"/><path class="cls-7" d="M174.53,76.32a.67.67,0,0,1,0,.23,2.22,2.22,0,0,1-.28.62,3.41,3.41,0,0,1-2.05,1.39,6.54,6.54,0,0,1-3.66-.37,20.9,20.9,0,0,1-2-.78,3.51,3.51,0,0,1-1.78-1.59,1,1,0,0,0-.08-.21l.31.09A14.9,14.9,0,0,1,161.15,78a6.71,6.71,0,0,1-3.59.4,4.79,4.79,0,0,1-2.22-1,2.9,2.9,0,0,1-.47-.47c-.09-.12-.14-.19-.13-.2s.23.22.69.55a4.88,4.88,0,0,0,2.17.84,6.57,6.57,0,0,0,3.42-.46,15.43,15.43,0,0,0,3.67-2.28l.2-.16.1.25c0,.05,0,.11.07.17a3.14,3.14,0,0,0,1.59,1.41c.65.31,1.34.55,2,.79a6.5,6.5,0,0,0,3.48.43,3.36,3.36,0,0,0,2-1.2A7.15,7.15,0,0,0,174.53,76.32Z"/><path class="cls-4" d="M133.22,102.3a2.37,2.37,0,0,0,2.2,2.46,2.27,2.27,0,0,0,2.51-2.06,2.36,2.36,0,0,0-2.2-2.46A2.27,2.27,0,0,0,133.22,102.3Z"/><path class="cls-4" d="M110.29,101.67a2.36,2.36,0,0,0,2.2,2.46,2.27,2.27,0,0,0,2.51-2.06,2.37,2.37,0,0,0-2.2-2.46A2.26,2.26,0,0,0,110.29,101.67Z"/><path class="cls-4" d="M109.35,93.82c.29.32,2.12-.95,4.67-.87s4.37,1.43,4.65,1.12c.14-.13-.14-.7-.93-1.31A6.43,6.43,0,0,0,114,91.48a6.26,6.26,0,0,0-3.72,1.07C109.5,93.12,109.21,93.67,109.35,93.82Z"/><path class="cls-4" d="M134.67,95.09c.32.28,2-1.17,4.55-1.34s4.5,1,4.75.64c.12-.15-.21-.69-1.07-1.22a6.48,6.48,0,0,0-3.82-.89,6.22,6.22,0,0,0-3.6,1.45C134.74,94.38,134.52,95,134.67,95.09Z"/><path class="cls-4" d="M125.18,114.2c0-.14-1.56-.47-4.11-.88-.65-.09-1.26-.24-1.36-.68a3.32,3.32,0,0,1,.5-1.92q1-2.32,2.08-4.88c2.9-7,5-12.7,4.73-12.81s-2.85,5.43-5.75,12.39q-1,2.58-2,4.92a3.78,3.78,0,0,0-.42,2.54,1.62,1.62,0,0,0,1,1,4.46,4.46,0,0,0,1.1.19C123.56,114.28,125.16,114.34,125.18,114.2Z"/><path class="cls-6" d="M129.12,118a3.64,3.64,0,0,1,2.46,1.43c.56.8,1,2.67.41,3.39s-2.57.62-4,.44a1.78,1.78,0,0,1-1.45-1.19l-.57-1.64a1.77,1.77,0,0,1,1.1-2.28A4.64,4.64,0,0,1,129.12,118Z"/><path class="cls-4" d="M133.51,85.79c.38.63,2.82-.18,5.82-.39s5.53.12,5.8-.57c.11-.32-.42-.88-1.51-1.36a10.14,10.14,0,0,0-8.85.74C133.78,84.85,133.34,85.49,133.51,85.79Z"/><path class="cls-4" d="M110,89.64c.53.56,2.55-.09,5-.19s4.52.27,5-.35c.2-.3-.14-.87-1.06-1.39a7.71,7.71,0,0,0-4.08-.84,7.55,7.55,0,0,0-4,1.27C110,88.76,109.74,89.36,110,89.64Z"/><path class="cls-7" d="M197.71,195.36l-24,87.13,8.43,25c-31.72,14-77.57,18.42-113.72.91,0,0,12.28-36,12.7-43s-2.6-48,.74-61.72,12.9-43.18,12.9-43.18L122.88,156c12.9,6.93,21.16,8,35-.07l26.21,5.72Z"/><path class="cls-7" d="M95.17,160.39S80.06,162,74,174.42,51.29,241,50.38,250.11s6.45,21.29,12.87,23l19.47-19.41,16.15,1.44,21.27-99.22Z"/><g class="cls-8"><path d="M83.76,193.77A73.22,73.22,0,0,0,80,232.29l-10.63-4a33.19,33.19,0,0,0,11,9.69,26,26,0,0,0-8.79-1.47c-3,.19-6.06,1.63-7.4,4.3,3.48-.64,7-1.27,10.53-.86s7,2,8.94,5a123.08,123.08,0,0,1-3-34.6"/></g><g class="cls-8"><path d="M79.35,268.49l79.29,7.86c-5.71-.12-10.11,4.71-15.06,7.58-9.16,5.3-20.57,3.81-31,2.17l-26-4.09c-2.18-.34-4.51-.75-6.12-2.27C77.55,277,78.34,272.33,79.35,268.49Z"/></g><path class="cls-5" d="M139.91,262l13.27-12.81a6.11,6.11,0,0,1,4.84-1.7c3.79.36,10.21,1,11.53,1.54,1.9.74,3.69,1.79,4.22,2.74a56.58,56.58,0,0,1,2.43,7.49,17.77,17.77,0,0,1-.22,2.7,1.87,1.87,0,0,1-2.75,1.43,3,3,0,0,1-1.25-1.17,4.17,4.17,0,0,1-.74-2.22s.42,5.7-4.22,5.8c0,0,2.14,4.86-3.84,6.86,0,0,.22,3.16-4.77,3.59a61.18,61.18,0,0,1-9.54,0s-9.13,6.56-15.57,7-20.84-2.39-20.84-2.39l-1.74-26.54Z"/><path class="cls-6" d="M157.9,253.84a12.89,12.89,0,0,0,2.12.89,55.46,55.46,0,0,0,5.3,1.73c1,.29,2.09.46,3,.7a3.21,3.21,0,0,1,1.81,1.48,16.14,16.14,0,0,0,1,1.39,1.64,1.64,0,0,0,.46.43,4.4,4.4,0,0,0-.35-.51c-.22-.32-.49-.82-.85-1.44a5,5,0,0,0-.73-.95,2.75,2.75,0,0,0-1.19-.71c-.94-.28-1.94-.44-3-.74-2.09-.55-3.95-1.18-5.3-1.61A15,15,0,0,0,157.9,253.84Z"/><path class="cls-6" d="M156.19,262a6.94,6.94,0,0,0,1.47.68c.93.37,2.23.86,3.69,1.34s2.78.89,3.75,1.15a6.69,6.69,0,0,0,1.59.34,7.77,7.77,0,0,0-1.52-.58l-3.71-1.24-3.71-1.25A7.55,7.55,0,0,0,156.19,262Z"/><path class="cls-6" d="M152.9,269.54c0,.11,2.32.35,5.08,1.1s4.89,1.7,4.94,1.6a5.82,5.82,0,0,0-1.36-.72,25.33,25.33,0,0,0-3.49-1.22,24,24,0,0,0-3.63-.7A6.09,6.09,0,0,0,152.9,269.54Z"/><path class="cls-7" d="M122.15,282.49l-58.9-9.4s7.08-29.54,17.41-29.54c1.51,0,53.83,17,53.83,17Z"/><path class="cls-6" d="M132.46,269.63a11.47,11.47,0,0,0,1.38-1.26l3.22-3.17c1.25-1.24,2.36-2.38,3.15-3.23a10.15,10.15,0,0,0,1.2-1.44,9.77,9.77,0,0,0-1.38,1.26L136.81,265c-1.25,1.24-2.37,2.39-3.15,3.24A8.8,8.8,0,0,0,132.46,269.63Z"/><path class="cls-4" d="M134.49,260.54a2.45,2.45,0,0,1-.75-.14l-2.1-.55L124,257.64c-6.47-1.9-15.39-4.58-25.23-7.59l-15.19-4.69-.12,0-.09-.12a13.47,13.47,0,0,0-6.86-4.64,17.25,17.25,0,0,0-6.57-.66,19.7,19.7,0,0,0-4.24.84c-1,.31-1.46.53-1.48.49a5.13,5.13,0,0,1,1.4-.72,17.41,17.41,0,0,1,4.27-1.07,17.13,17.13,0,0,1,6.8.51A13.93,13.93,0,0,1,84,244.78l-.2-.15L99,249.24c9.83,3,18.73,5.78,25.15,7.83l7.6,2.46,2,.71A2.87,2.87,0,0,1,134.49,260.54Z"/><path class="cls-5" d="M118.88,166.11c.5-1.64,3.26-16.77,4.39-20.29,1.59-5,14.49-13.84,14.49-13.84s-2-4.66-7.52-2.24c-6.5,2.87-9.72,7.69-11.36,6.71s-11.85-11.38-14.63-11-3.4,3.18-2.42,4.33a26.39,26.39,0,0,1,2.09,3S98,131,99.17,137.45c0,0-6.72-4.19-6.06,4.66,0,0-4.43-1.8-5.41,1.31s1.93,6.72,3.41,9.17,6.25,16.72,6.25,16.72l.06,12.56L120.91,177Z"/><path class="cls-6" d="M118.88,166.11a4.33,4.33,0,0,1,.19.72c.11.53.26,1.23.44,2.11.38,1.91.91,4.61,1.59,8.07l0,.19-.19,0-23.46,4.95-.39.08v-.4c0-3.87-.06-8.1-.09-12.56l0,.11c-1.68-4.83-3.42-10-5.61-15.28-1.07-2.54-3.3-4.74-4.1-7.81a5.85,5.85,0,0,1-.16-2.4,3.16,3.16,0,0,1,1.28-2.19,3.87,3.87,0,0,1,2.45-.55,8.46,8.46,0,0,1,2.38.53l-.57.42a14.77,14.77,0,0,1,.06-2.65,4.54,4.54,0,0,1,1.12-2.61,3.16,3.16,0,0,1,2.84-.78,7.81,7.81,0,0,1,2.68,1l-.64.44a5.73,5.73,0,0,1,.44-3.94,3.21,3.21,0,0,1,2.29-1.4,6.29,6.29,0,0,1,2.56.18l-.49.61a24.64,24.64,0,0,0-1.92-2.83,2.68,2.68,0,0,1-.66-1.88,3.58,3.58,0,0,1,.64-1.84,3.42,3.42,0,0,1,1.53-1.18,4.22,4.22,0,0,1,.91-.24,2.69,2.69,0,0,1,1,.09,11.33,11.33,0,0,1,3.06,1.71c3.67,2.68,6.81,5.75,10,8.52a4.54,4.54,0,0,0,1.12.82c.28.1.75-.12,1.16-.36.83-.52,1.63-1.19,2.44-1.82a38.64,38.64,0,0,1,5-3.44c1.72-.91,3.54-1.92,5.6-1.83a5.4,5.4,0,0,1,4.64,3.14l.12.25-.24.17c-5,3.58-9.54,7.09-12.74,10.88a9.18,9.18,0,0,0-1.77,3c-.33,1.11-.58,2.2-.83,3.25-.46,2.11-.89,4-1.27,5.79-.74,3.45-1.32,6.17-1.73,8.09-.2.93-.37,1.64-.5,2.11a4.16,4.16,0,0,1-.23.71,5.72,5.72,0,0,1,.13-.73c.1-.53.23-1.24.4-2.13.37-1.93.88-4.67,1.54-8.13q.54-2.64,1.19-5.81c.23-1.06.47-2.16.8-3.3a10,10,0,0,1,1.83-3.22c3.25-3.92,7.74-7.46,12.79-11.1l-.12.42a4.72,4.72,0,0,0-4-2.69c-1.78-.08-3.51.86-5.21,1.77a38.52,38.52,0,0,0-4.88,3.39,29.48,29.48,0,0,1-2.52,1.88,2.42,2.42,0,0,1-1.76.46,4.58,4.58,0,0,1-1.44-1c-3.21-2.79-6.35-5.84-9.94-8.45a10.7,10.7,0,0,0-2.81-1.59,1.63,1.63,0,0,0-.66-.06,2.9,2.9,0,0,0-.73.19,2.48,2.48,0,0,0-1.15.89,2.15,2.15,0,0,0,0,2.69,24.27,24.27,0,0,1,2,2.95l.54.89-1-.27c-1.37-.37-3.17-.33-3.9.87a5,5,0,0,0-.32,3.33l.13.88-.77-.45a7,7,0,0,0-2.36-.88,2.34,2.34,0,0,0-2.12.55c-1,1.12-1,3-.94,4.6l0,.64-.6-.22c-1.33-.49-3-.77-4.06-.07a2.27,2.27,0,0,0-.92,1.64,5.16,5.16,0,0,0,.13,2.06A14.66,14.66,0,0,0,89.94,150a24.69,24.69,0,0,1,2.2,3.81c2.2,5.33,3.91,10.51,5.57,15.37l0,.05v.06c0,4.47,0,8.7,0,12.57l-.39-.32,23.51-4.7-.16.23-1.4-8.14c-.15-.88-.26-1.58-.34-2.11A4.29,4.29,0,0,1,118.88,166.11Z"/><path class="cls-6" d="M103.94,132.93a32,32,0,0,0,2.85,2.66,31.27,31.27,0,0,0,2.92,2.59,16.07,16.07,0,0,0-2.68-2.85A16.12,16.12,0,0,0,103.94,132.93Z"/><path class="cls-6" d="M98.69,137.1a6.94,6.94,0,0,0,1.44,2.62,7.11,7.11,0,0,0,2.19,2.06c.06-.08-.91-1-1.9-2.27S98.78,137.05,98.69,137.1Z"/><path class="cls-6" d="M93.2,141.79A15.81,15.81,0,0,0,96,145.61a15.31,15.31,0,0,0-2.75-3.82Z"/><path class="cls-7" d="M184.12,161.62l-25.26,25.2-25.92,32.56L122.64,176l-26.33,5.42s1.85,49,10,71.22c1.54,4.23,6.1,7.37,8.14,8.34,12.73,6,25.16-3.31,25.16-3.31s53.11-35.65,58.87-59.51c2.72-11.27,1.63-24.67-3-30.18C191.36,163.12,184.12,161.62,184.12,161.62Z"/><path class="cls-4" d="M198.44,198.15s-.06.26-.2.77a17.91,17.91,0,0,1-.72,2.23,38.51,38.51,0,0,1-4.17,8,89.06,89.06,0,0,1-8.83,11.18A185.1,185.1,0,0,1,171,233.48c-5.22,4.65-11.16,9.5-17.69,14.5-3.27,2.49-6.69,5-10.27,7.54l-2.71,1.9c-.91.62-1.85,1.28-2.83,1.83A33.56,33.56,0,0,1,131.2,262a23.55,23.55,0,0,1-14.11.27,15.55,15.55,0,0,1-1.72-.65,12.74,12.74,0,0,1-1.7-.75,20.62,20.62,0,0,1-3.06-2.12,15.1,15.1,0,0,1-4.56-6,115.63,115.63,0,0,1-4-14.85c-1-5.11-1.87-10.31-2.54-15.6-1.85-14.12-2.91-27.88-3.51-40.9v-.22l.21,0,26.34-5.4.22,0,.06.22c3.89,16.48,7.35,31.15,10.25,43.4l-.31-.08,21-22.55,5.66-6.06,1.48-1.56.52-.52-.48.56-1.44,1.59-5.6,6.12L133.08,219.5l-.23.25-.08-.33c-2.92-12.24-6.42-26.9-10.36-43.37l.28.17-26.33,5.43.2-.25c.6,13,1.66,26.75,3.52,40.85.67,5.29,1.56,10.47,2.53,15.57a114.69,114.69,0,0,0,3.92,14.77,14.52,14.52,0,0,0,4.4,5.77,19.46,19.46,0,0,0,3,2.07,12.76,12.76,0,0,0,1.64.73,13.11,13.11,0,0,0,1.68.63,23.08,23.08,0,0,0,13.82-.25,31.61,31.61,0,0,0,6.21-2.7c1-.55,1.88-1.17,2.8-1.81l2.72-1.88q5.36-3.78,10.27-7.52c6.53-5,12.48-9.8,17.7-14.43a184.09,184.09,0,0,0,13.54-13.1A89.86,89.86,0,0,0,193.18,209a40,40,0,0,0,4.25-7.9,20.62,20.62,0,0,0,.75-2.2C198.34,198.4,198.44,198.15,198.44,198.15Z"/><path class="cls-4" d="M137.74,239.31c-.1,0,.21-1.28.37-3.33a24.07,24.07,0,0,0,0-3.62,26.09,26.09,0,0,0-.72-4.35,28.1,28.1,0,0,0-3.15-7.38c-1.07-1.76-1.87-2.78-1.79-2.83s.25.21.63.65a24,24,0,0,1,1.48,2,24.8,24.8,0,0,1,3.33,7.45,23.37,23.37,0,0,1,.7,4.45,21.32,21.32,0,0,1-.12,3.68,17.56,17.56,0,0,1-.45,2.44A3.6,3.6,0,0,1,137.74,239.31Z"/><path class="cls-4" d="M134.14,121.28c0,.14-.59.08-1.42-.09a27.63,27.63,0,0,0-3.18-.51,9.32,9.32,0,0,0-3.12.19c-.78.18-1.1.49-1.23.44s-.06-.2.09-.43a2.37,2.37,0,0,1,.88-.7,6.6,6.6,0,0,1,3.46-.54,10.42,10.42,0,0,1,3.32.85C133.74,120.85,134.19,121.15,134.14,121.28Z"/><g class="cls-8"><path d="M174.27,281.94s-11.57-1.42-17.79-2.38c-3.4-.53-8.57-1.07-9.55-2-1.22-1.18-1.21-3.15-1.34-4.84-2.21-28.85,7.71-60,38.37-78.66l7.81,2.05-.5,18.8Z"/></g></g><g id="Character_2" data-name="Character 2"><path class="cls-4" d="M355,57.12a8,8,0,0,0,3-15.71,8.36,8.36,0,0,0-7.64-13.91,10,10,0,0,0-15.28-7.83,11.25,11.25,0,0,0-13.86.06,8.23,8.23,0,0,0-8.45,4.38,8.24,8.24,0,0,0,1.72,9.36"/><path class="cls-5" d="M319.7,27.7l1.76,0a34.1,34.1,0,0,1,34.72,30.56c1.71,16.44,3.39,34.62,3.49,43.46.2,18.31-18,21.58-18,21.58l2.06,21.94-44.44-.34-5.79-79.63C291.39,46.27,300.69,29.25,319.7,27.7Z"/><path class="cls-6" d="M341.66,123.25a47.42,47.42,0,0,1-25.23-6.48s7.43,13.34,25.65,11.26Z"/><path class="cls-4" d="M350.59,78.07a2.62,2.62,0,0,1-2.46,2.7,2.51,2.51,0,0,1-2.75-2.29,2.62,2.62,0,0,1,2.46-2.7A2.5,2.5,0,0,1,350.59,78.07Z"/><path class="cls-4" d="M352.45,67.26c-.31.35-2.32-1.07-5.14-1s-4.84,1.53-5.15,1.19c-.15-.15.16-.77,1-1.44a7.15,7.15,0,0,1,4.11-1.38,6.89,6.89,0,0,1,4.1,1.22C352.3,66.49,352.61,67.1,352.45,67.26Z"/><path class="cls-4" d="M326.38,78.07a2.62,2.62,0,0,1-2.46,2.7,2.5,2.5,0,0,1-2.75-2.29,2.62,2.62,0,0,1,2.46-2.7A2.5,2.5,0,0,1,326.38,78.07Z"/><path class="cls-4" d="M324.83,68.43c-.32.35-2.33-1.07-5.14-1s-4.84,1.53-5.16,1.19c-.15-.15.16-.77,1.05-1.44a7.08,7.08,0,0,1,4.11-1.38A6.92,6.92,0,0,1,323.8,67C324.67,67.66,325,68.27,324.83,68.43Z"/><path class="cls-4" d="M335.52,89c0-.16,1.72-.5,4.55-.93.71-.09,1.39-.25,1.5-.74a3.63,3.63,0,0,0-.53-2.12c-.72-1.72-1.46-3.52-2.25-5.41-3.13-7.72-5.41-14.07-5.1-14.19s3.1,6,6.23,13.74c.75,1.91,1.48,3.72,2.16,5.45a4.18,4.18,0,0,1,.44,2.81,1.77,1.77,0,0,1-1.16,1.08,4.9,4.9,0,0,1-1.21.2C337.3,89.15,335.53,89.2,335.52,89Z"/><path class="cls-4" d="M325.42,62.62c-.35.72-2.78,0-5.75,0s-5.45.52-5.74-.21c-.13-.35.39-1,1.44-1.6a9,9,0,0,1,4.43-1A8.59,8.59,0,0,1,324.13,61C325.13,61.61,325.58,62.28,325.42,62.62Z"/><path class="cls-4" d="M352.32,55.66c-.58.66-2.91.05-5.7.08s-5.15.55-5.71-.11c-.24-.31.11-1,1.13-1.59a9.63,9.63,0,0,1,9.2,0C352.24,54.7,352.58,55.35,352.32,55.66Z"/><path class="cls-4" d="M354.22,49.87S349.13,38.52,343.54,36c-6.76-3.09-9.47,4.32-15.88,2.69s-12.88-4.59-19.28.49c-7,5.56-3.57,9.26-3.83,17.39-1,33-6.81,42.41-8.88,26.94-.23-1.69-5-2.93-5.84-10.09-1.12-9.29-1.74-20.58.18-27.23,1.62-5.61,4.71-9.52,10.3-13.9,8.83-6.9,21.16-7.33,29.56-6.68S354.65,35.5,354.22,49.87Z"/><path class="cls-5" d="M296.82,83a5,5,0,0,0-5.47-4.66c-3.4.4-7.16,2.43-6.77,9.47.7,12.5,13.1,9.23,13.1,8.87S297.16,88.2,296.82,83Z"/><path class="cls-6" d="M294.7,92.1c-.05,0-.21.16-.56.35a2.19,2.19,0,0,1-1.63.13c-1.35-.41-2.58-2.45-2.76-4.7a7,7,0,0,1,.44-3.15A2.49,2.49,0,0,1,291.73,83a1.11,1.11,0,0,1,1.32.52c.19.34.12.6.19.62s.26-.23.13-.74a1.46,1.46,0,0,0-.54-.76,1.7,1.7,0,0,0-1.22-.25,3.08,3.08,0,0,0-2.17,2.07,7.35,7.35,0,0,0-.56,3.52c.22,2.52,1.64,4.8,3.47,5.22a2.3,2.3,0,0,0,2-.44C294.7,92.4,294.75,92.12,294.7,92.1Z"/><path class="cls-4" d="M296.5,58.73a11.93,11.93,0,0,0,5.36,2.32c2,.15,4.17-1,4.46-3,.13-.87-.11-1.87.45-2.56s1.93-.6,3-.51c3.65.3,7.8-3.82,8.64-7.38a3.28,3.28,0,0,0,4.39.81,11.87,11.87,0,0,0,3-2.75c1.07-1.29,2.59-2.45,4.24-2.25.93.11,1.81.64,2.74.53,1.64-.18,2.4-2.12,2.61-3.76s.36-3.54,1.73-4.46,2.95-.42,4.47-.23,3.46-.21,3.81-1.7a3,3,0,0,0-.61-2.25,8.1,8.1,0,0,0-9.64-2.85,11,11,0,0,0-20.22-1.66,11.14,11.14,0,0,0-17.72,4.48,8.08,8.08,0,0,0-8.84,12c-2.21,1.34-4.09,3.62-4.07,6.21s2.59,5.11,5.08,4.37a4.47,4.47,0,0,0,7.84,4.28"/><path class="cls-7" d="M336.1,32.37a.68.68,0,0,1,0,.23c0,.15,0,.38-.06.67a8.1,8.1,0,0,1-.86,2.43,8.87,8.87,0,0,1-2.7,3,8.26,8.26,0,0,1-5.09,1.58l.2-.28a4.49,4.49,0,0,1-.17,3.46,13,13,0,0,1-2.06,3.13A10.35,10.35,0,0,1,324,48.08a4.47,4.47,0,0,1-2,.78A4.59,4.59,0,0,1,318,47.51l.47-.15A9.39,9.39,0,0,1,314.6,54a6.8,6.8,0,0,1-4.08,1.44,12.37,12.37,0,0,1-4.07-.79l.34-.16a9.86,9.86,0,0,1-2.88,3.93,5.22,5.22,0,0,1-4.33,1.29,6.91,6.91,0,0,1-5.43-5.27l.29.13a6.49,6.49,0,0,1-4.28.73,7,7,0,0,1-3-1.27,6.21,6.21,0,0,1-1.44-1.49,3.8,3.8,0,0,1-.33-.64,7.66,7.66,0,0,0,1.89,2A7,7,0,0,0,290.2,55a6.2,6.2,0,0,0,4-.76l.23-.14.06.26a6.5,6.5,0,0,0,5.14,4.88A4.76,4.76,0,0,0,303.6,58a9.37,9.37,0,0,0,2.69-3.73l.1-.23.23.07a12.06,12.06,0,0,0,3.89.76,6.33,6.33,0,0,0,3.77-1.34,8.91,8.91,0,0,0,3.62-6.21l.06-.59.4.45A4.09,4.09,0,0,0,322,48.35a3.79,3.79,0,0,0,1.74-.68A9,9,0,0,0,325,46.29a12.22,12.22,0,0,0,2-3,4,4,0,0,0,.2-3.13l-.11-.3.32,0a8.06,8.06,0,0,0,4.88-1.44A9,9,0,0,0,335,35.59,9.63,9.63,0,0,0,336.1,32.37Z"/><path class="cls-5" d="M246.12,143.24s-47,16.56-60.63,23.4c-10.62,5.35-17.35,24.74-1,32.82,12.19,6,78.2-5.49,78.2-5.49Z"/><path class="cls-4" d="M389.67,307.88l-119.48-4.53L265.87,344l-4.79,81.58,61,.26c0-.34,7.6-45.86,7.6-45.86l3.45-.9-.32,46.76H390c3-38.69,4.72-71.19,4.82-74.25A149.43,149.43,0,0,0,389.67,307.88Z"/><path class="cls-7" d="M325.37,354.66a8.78,8.78,0,0,0,1.82.92,20.33,20.33,0,0,0,5.34,1.62,11.11,11.11,0,0,0,3.91-.14,8,8,0,0,0,4-2.14,9.7,9.7,0,0,0,2.3-4.44c.43-1.67.64-3.4.92-5.16,1.06-7.05,1.7-13.48,2-18.14.17-2.33.27-4.22.31-5.52a9,9,0,0,0,0-2,9.42,9.42,0,0,0-.32,2q-.24,2.24-.59,5.49c-.5,4.64-1.25,11-2.3,18.07-.54,3.47-.86,7-2.93,9.16a8.82,8.82,0,0,1-7.25,2.22,23.88,23.88,0,0,1-5.28-1.32A9.62,9.62,0,0,0,325.37,354.66Z"/><path class="cls-7" d="M336.77,321.24s-.29-.21-.89-.22a3.76,3.76,0,0,0-2.34.86,4.22,4.22,0,0,0-1.65,3.36,4.21,4.21,0,0,0,7.28,2.38,4.26,4.26,0,0,0,.66-3.68,3.76,3.76,0,0,0-1.38-2.08c-.49-.35-.83-.39-.85-.35a4.77,4.77,0,0,1,1.61,2.58,3.73,3.73,0,0,1-.68,3,3.45,3.45,0,0,1-5.81-1.9,3.7,3.7,0,0,1,1.23-2.84A4.79,4.79,0,0,1,336.77,321.24Z"/><path class="cls-7" d="M270.19,341.58a5,5,0,0,0,1.46.16,27.78,27.78,0,0,0,4-.12,38.68,38.68,0,0,0,23.42-11.06,27.38,27.38,0,0,0,2.63-3c.56-.75.84-1.19.79-1.23s-1.42,1.52-3.86,3.77A42.85,42.85,0,0,1,275.56,341C272.27,341.45,270.2,341.42,270.19,341.58Z"/><path class="cls-7" d="M392.08,301.24c-2.35-5.33-1.91-5.82-1.91-5.82l-6.65-58.13-6.38-56.55L372,138.89l-29.89-6.4s-3.44,9.53-17.88,9.82c-16.65.33-26.19-14.55-26.19-14.55L250.22,138l18,123.26,2.15,33.2s-3.57,5.38-3.57,11.14-.23,9.6-.23,9.6c44.36,12.19,88.38,22.74,128.88,10.95C395.43,326.17,394.42,306.58,392.08,301.24Z"/><path class="cls-7" d="M361.07,136.71s17.22,1.92,23.34,8.41,25.64,38.59,25.64,38.59l-28.37,38.82-13.15-17.94Z"/><path class="cls-4" d="M374.2,156.8c.24,0,2.95,21.31,6.06,47.65s5.44,47.72,5.2,47.74-2.95-21.31-6.06-47.66S374,156.82,374.2,156.8Z"/><polygon class="cls-7" points="250.22 138.02 211.96 155 225.81 193.74 262.69 199.58 250.22 138.02"/><path class="cls-4" d="M255.49,163.7c.26,0,2.08,15.08,4.08,33.75s3.41,33.82,3.15,33.85-2.08-15.08-4.08-33.75S255.24,163.72,255.49,163.7Z"/><g class="cls-8"><path d="M264.93,360.09c20.77-7.47,32.28-22.19,41.57-37.8s10.62-37.59,4.67-54.75c0,0-42.93,41.53-43.24,42.45S264.93,360.09,264.93,360.09Z"/></g><g class="cls-8"><path d="M323.36,141.77c-.51,4.22,1.85,8.29,4.74,11.4s6.39,5.65,9,9c3,3.8,4.73,8.44,6.4,13q5.25,14.25,10.49,28.51c3,8.18,6.06,16.45,10.84,23.75s11.49,13.65,19.8,16.32l-6.31-53.55-33.25-53.47Z"/></g><path class="cls-5" d="M357.82,142.24c0-.67.54-25.47-1.13-28.17s-3-5.22-3.32-7.74a1.67,1.67,0,0,0-.75-2.4c-1.65-.92-4.27,1.33-4.33,5.31s.4,10.79.4,10.79-18.3-10.39-23.31-10.67-12.54-1.22-12.94,1.21-.06,3,2.56,3.92,6.79,1.56,10.89,2.94a52.94,52.94,0,0,1,6,2.33s-9.34-2.75-11.4,0-1.76,5.23-.45,6.56a4.23,4.23,0,0,0-2.51,4.21c.29,3.06,1.65,3.81,1.65,3.81s-2.73,2.07-1.42,4.73,4.39,1,7.29,4,10.15,10,12.94,11.59,9.18,2.19,9.18,2.19Z"/><path class="cls-6" d="M357.82,142.24a1.48,1.48,0,0,1-.16.25l-.52.74-2.05,2.86-7.83,10.82-.05.07h-.07c-1.27-.13-2.58-.32-3.95-.58a24.53,24.53,0,0,1-4.21-1.11,8.3,8.3,0,0,1-2-1.12c-.65-.45-1.27-.95-1.89-1.46-1.25-1-2.49-2.14-3.76-3.3s-2.54-2.39-3.84-3.66l-1.95-1.94a9.16,9.16,0,0,0-2.11-1.78,9.45,9.45,0,0,0-2.67-.9,4.49,4.49,0,0,1-2.73-1.3,3.49,3.49,0,0,1-.72-3,5.17,5.17,0,0,1,1.76-2.64l0,.36a3.91,3.91,0,0,1-1.36-2,8.55,8.55,0,0,1-.42-2.38,4.13,4.13,0,0,1,.7-2.41,4.87,4.87,0,0,1,1.95-1.64l-.07.36a4.38,4.38,0,0,1-.81-4.53,7.87,7.87,0,0,1,1.11-2.13,2.56,2.56,0,0,1,.92-.87,4.58,4.58,0,0,1,1.17-.43,14.74,14.74,0,0,1,4.87,0,36.92,36.92,0,0,1,4.82,1l-.17.44a60.91,60.91,0,0,0-7.65-2.84c-2.66-.79-5.43-1.31-8.2-2.1a11.59,11.59,0,0,1-2.91-1.19,2.05,2.05,0,0,1-.91-1.39,6,6,0,0,1,0-1.59,2.08,2.08,0,0,1,.23-.82,1.86,1.86,0,0,1,.63-.59,4.79,4.79,0,0,1,1.5-.52,16.44,16.44,0,0,1,3-.22c2,0,4,.15,5.93.29a22.84,22.84,0,0,1,2.93.28c.48.11.95.25,1.42.38l1.37.48a104.14,104.14,0,0,1,10.23,4.67q4.88,2.49,9.36,5l-.32.2c-.22-3.93-.45-7.69-.35-11.33a6.16,6.16,0,0,1,2.34-4.73,2.64,2.64,0,0,1,1.29-.43A2,2,0,0,1,353,104a1.8,1.8,0,0,1,.73,1.14,2,2,0,0,1-.25,1.3l0-.11a19.8,19.8,0,0,0,3.07,7.32,3.6,3.6,0,0,1,.43.88,7.89,7.89,0,0,1,.23.93c.11.62.19,1.23.25,1.83.13,1.2.2,2.36.26,3.49.22,4.51.21,8.4.21,11.58s-.05,5.66-.09,7.34c0,.82,0,1.46-.05,1.91s0,.65,0,.65,0-.22,0-.65,0-1.09,0-1.91c0-1.7,0-4.17,0-7.34s-.06-7.07-.3-11.56c-.07-1.13-.15-2.29-.28-3.48-.06-.59-.14-1.2-.26-1.8a4,4,0,0,0-.63-1.7,20.24,20.24,0,0,1-3.14-7.45v0l0-.07a1.66,1.66,0,0,0,.2-1,1.44,1.44,0,0,0-.6-.9,1.77,1.77,0,0,0-2.14,0,5.79,5.79,0,0,0-2.15,4.44c-.09,3.57.15,7.37.38,11.27l0,.4-.35-.19c-3-1.68-6.11-3.36-9.36-5A106.37,106.37,0,0,0,329,110.57l-1.35-.47c-.46-.12-.91-.26-1.37-.36a24,24,0,0,0-2.88-.27c-1.95-.14-3.91-.29-5.89-.29a17,17,0,0,0-2.95.22c-.92.19-2,.52-2,1.52a5.09,5.09,0,0,0-.06,1.45,1.57,1.57,0,0,0,.72,1.08,11.09,11.09,0,0,0,2.76,1.12c2.73.78,5.53,1.3,8.21,2.1a60.7,60.7,0,0,1,7.72,2.88l-.17.43a36.18,36.18,0,0,0-4.75-1,14,14,0,0,0-4.7,0,2.78,2.78,0,0,0-1.83,1.12,7.48,7.48,0,0,0-1,2,3.92,3.92,0,0,0,.69,4.08l.22.23-.3.13a4.57,4.57,0,0,0-1.75,1.48,3.63,3.63,0,0,0-.63,2.15,7.77,7.77,0,0,0,.4,2.25,3.52,3.52,0,0,0,1.15,1.75l.25.17-.23.19a4.69,4.69,0,0,0-1.61,2.39,3,3,0,0,0,.63,2.65,4.1,4.1,0,0,0,2.5,1.17,9.78,9.78,0,0,1,2.77.95,9.27,9.27,0,0,1,2.2,1.86l1.94,1.94c1.29,1.27,2.56,2.5,3.82,3.66s2.49,2.28,3.72,3.31a14.33,14.33,0,0,0,3.83,2.54,24.65,24.65,0,0,0,4.15,1.12c1.36.27,2.67.46,3.92.6l-.12.06L355,146l2.11-2.83.55-.73Z"/><path class="cls-5" d="M417.11,200.14c-1.82-3.5-5.95-10.77-7.94-15.22l-13.08,4.75s-37-50-38.23-50-17.27,14.92-17.27,14.92c.71.71,34.06,77.15,46.84,85.44s22.3,13.54,29.16,1.71S425.16,215.52,417.11,200.14Z"/><path class="cls-6" d="M412.84,212.13a4.7,4.7,0,0,1-.61-1c-.37-.64-.91-1.56-1.59-2.68a93.86,93.86,0,0,0-5.82-8.46c-2.45-3.18-4.82-5.94-6.55-7.93l-2-2.35a5.11,5.11,0,0,1-.71-.9,4.91,4.91,0,0,1,.84.77c.53.52,1.27,1.29,2.17,2.26,1.79,1.93,4.21,4.66,6.67,7.86a73.46,73.46,0,0,1,5.73,8.58c.65,1.15,1.15,2.1,1.46,2.77A5.1,5.1,0,0,1,412.84,212.13Z"/><path class="cls-4" d="M337.48,100.69c-.33.25-1.71-1.17-3.9-1.94s-4.14-.62-4.24-1c0-.18.43-.49,1.31-.66a6.88,6.88,0,0,1,6.26,2.28C337.47,100,337.63,100.58,337.48,100.69Z"/><path class="cls-4" d="M370.92,300.9a1.76,1.76,0,0,1-.46.27,14.88,14.88,0,0,1-1.36.66,21.57,21.57,0,0,1-5.41,1.46,31.6,31.6,0,0,1-8.3,0,62.76,62.76,0,0,1-9.91-2.22c-6.88-2.1-13-4.41-17.34-6.19-2.18-.9-3.93-1.66-5.13-2.21l-1.38-.64a2.31,2.31,0,0,1-.46-.25,1.94,1.94,0,0,1,.5.16l1.41.56,5.18,2.06c4.39,1.7,10.5,4,17.36,6.05a63.43,63.43,0,0,0,9.83,2.24,32.6,32.6,0,0,0,8.2.14,23.4,23.4,0,0,0,5.38-1.29C370.24,301.18,370.9,300.86,370.92,300.9Z"/><path class="cls-1" d="M280.44,205.49c-16.71-11.25-36.57-15.27-49.59-15.27-12.19,0-30.14,1.9-46.39,11.05a64.26,64.26,0,0,0-23.93,23.09c-6.87,11.41-10.58,25.54-11.06,42a9.12,9.12,0,0,0,9.11,9.35l32,0a9.16,9.16,0,0,0,9-7.82c1.42-10,7.38-26.91,31.31-27.3,18.23-.3,25.74,12.9,28.12,18.59,3.88,9.26,2.89,20.23-2.65,29.36-8.52,14-24.17,16.16-32.75,16.18a17.94,17.94,0,0,0-17.89,17.83l0,34.41a9.12,9.12,0,0,0,9.11,9.11l31.15,0a9.14,9.14,0,0,0,9.12-9.11v-7.23a.41.41,0,0,1,.28-.38,90.36,90.36,0,0,0,33.07-20.69c15.73-15.62,23.72-35.8,23.74-60C312.19,234.14,294.93,215.25,280.44,205.49Z"/><path class="cls-1" d="M231.93,374.76H229.2a23.63,23.63,0,0,0,0,47.25h2.73a23.63,23.63,0,1,0,0-47.25Z"/><g class="cls-8"><path d="M311,246.63a39.78,39.78,0,0,0-2.64-10.13c-6.23-15.56-20.87-26.16-37.53-28.06l-80.38-9.14c8.74,8.93,20.15,10.71,32.25,13.85S247.79,221,260,223.59c3.92.83,8,1.88,11,4.48s4.64,6.25,6.21,9.83l7,15.94c2.66,6.07,6.19,12.92,13.33,13.31a11.3,11.3,0,0,0,7.91-2.8C310.63,259.91,311.72,253,311,246.63Z"/></g><path class="cls-5" d="M309.82,225.1c-.62-1.09-12.84-16-18.91-21.82-3.92-3.74-9.83-6.32-13.54-7.69,0,0-61.17-22.08-65.41-24.24l-27.47,28.11c9.56,2.66,74.49,18.29,90.51,21.81,2.81,3.27,5.63,5.95,5.63,5.95l4.65,10.93a43.77,43.77,0,0,1,.2,8.26c-.33,4.27,3.13,2.6,3.13,2.6a61,61,0,0,0,.06,6.48s0,.08,0,.11c.23,2.86,4.34,3.22,5.21.49l3.16-9.87s-.42,9-.58,14a5,5,0,0,0,.4,2.27,3.11,3.11,0,0,0,5.82-.68l3.7-15.6-1.2-9.56,3.11,8.73a60.52,60.52,0,0,1,.68,11.23c-.07,2.62.82,3.73,1.9,4.13a3,3,0,0,0,3.9-2.72L316,243.54S310.44,226.2,309.82,225.1Z"/><path class="cls-6" d="M208,170.26a17.33,17.33,0,0,1,4.5.92A106.9,106.9,0,0,1,223,174.8c4,1.6,7.6,3.14,10.2,4.24a24.57,24.57,0,0,1,4.15,1.93,20.49,20.49,0,0,1-4.39-1.32c-2.67-1-6.3-2.39-10.3-4s-7.64-2.95-10.31-3.85A30.75,30.75,0,0,1,208,170.26Z"/></g></g></svg>